<?xml version="1.0" standalone="no"?>
<!DOCTYPE svg PUBLIC "-//W3C//DTD SVG 20010904//EN"
 "http://www.w3.org/TR/2001/REC-SVG-20010904/DTD/svg10.dtd">
<svg version="1.0" xmlns="http://www.w3.org/2000/svg"
 width="300.000000pt" height="300.000000pt" viewBox="0 0 300.000000 300.000000"
 preserveAspectRatio="xMidYMid meet">
<metadata>
Created by potrace 1.14, written by Peter Selinger 2001-2017
</metadata>
<g transform="translate(0.000000,300.000000) scale(0.100000,-0.100000)"
fill="#000000" stroke="none">
<path d="M1110 2974 c-47 -14 -89 -27 -95 -28 -38 -10 -257 -107 -273 -121 -2
-2 17 -36 41 -77 25 -40 54 -89 65 -108 23 -41 187 -315 208 -348 l15 -22 42
22 c23 12 74 33 112 48 61 23 70 29 69 51 -1 25 -10 104 -19 174 -3 22 -8 58
-11 80 -2 22 -7 51 -9 65 -2 14 -6 50 -9 80 -4 30 -8 64 -10 75 -2 11 -7 46
-10 78 -5 34 -12 57 -19 56 -7 0 -50 -12 -97 -25z"/>
<path d="M1770 2912 c-6 -48 -13 -105 -16 -127 -2 -22 -9 -71 -14 -110 -5 -38
-12 -88 -14 -110 -9 -67 -16 -123 -21 -164 l-6 -38 48 -12 c26 -7 78 -26 116
-43 37 -17 69 -29 70 -27 8 10 39 61 56 91 10 18 76 127 145 242 70 114 126
210 124 211 -31 27 -272 126 -363 148 -127 31 -111 39 -125 -61z"/>
<path d="M545 2689 c-98 -80 -275 -270 -275 -296 0 -4 15 -18 33 -30 34 -22
153 -105 272 -188 39 -27 102 -71 142 -97 l72 -48 90 92 91 92 -62 91 c-35 50
-115 166 -178 258 -63 91 -119 166 -125 166 -5 0 -32 -18 -60 -40z"/>
<path d="M2260 2549 c-69 -100 -149 -216 -178 -259 l-52 -77 92 -92 91 -92 92
63 c50 35 166 115 258 178 91 63 167 119 167 124 1 37 -299 336 -337 336 -4 0
-64 -82 -133 -181z"/>
<path d="M137 2183 c-44 -87 -83 -192 -113 -301 -13 -48 -24 -90 -24 -93 0 -4
24 -10 53 -14 28 -4 63 -8 77 -10 50 -7 106 -15 145 -20 22 -2 56 -7 75 -10
19 -2 58 -7 85 -10 82 -9 138 -15 171 -20 29 -5 31 -3 47 47 9 29 30 80 46
113 36 72 54 54 -177 188 -92 53 -205 119 -252 147 -47 27 -88 50 -92 50 -4 0
-22 -30 -41 -67z"/>
<path d="M1266 2234 c-156 -57 -309 -172 -395 -298 -36 -52 -105 -195 -115
-238 -6 -25 -4 -28 21 -29 16 0 42 -3 58 -5 123 -19 231 -34 244 -34 9 0 29
25 46 58 38 74 127 163 194 193 l53 24 -6 50 c-3 28 -7 59 -10 70 -2 11 -9 66
-16 123 -8 60 -18 102 -24 101 -6 0 -28 -7 -50 -15z"/>
<path d="M1670 2237 c0 -8 -7 -58 -15 -113 -8 -54 -18 -126 -21 -159 l-6 -60
54 -24 c67 -30 154 -118 193 -194 l30 -58 55 6 c30 3 83 10 118 16 34 5 84 12
109 15 26 3 51 7 54 10 11 6 -29 119 -64 184 -86 158 -225 284 -386 351 -89
36 -121 43 -121 26z"/>
<path d="M2550 2093 c-140 -85 -261 -157 -267 -161 -10 -6 -4 -26 21 -77 19
-39 39 -89 46 -112 7 -24 16 -43 19 -43 3 0 35 5 71 10 36 5 92 12 124 16 33
3 67 7 75 9 9 1 41 6 71 9 101 13 135 17 160 21 14 2 49 6 78 10 28 4 52 10
52 13 0 3 -10 42 -21 86 -41 151 -139 378 -163 375 -6 -1 -126 -71 -266 -156z"/>
<path d="M1892 1350 c-29 -81 -120 -180 -212 -229 l-56 -30 12 -73 c6 -40 15
-98 18 -128 3 -30 8 -64 10 -75 3 -11 5 -30 5 -42 1 -22 1 -22 54 -6 192 56
368 205 460 388 45 91 71 175 53 175 -7 0 -57 7 -112 15 -54 8 -123 17 -153
20 -30 3 -58 8 -62 10 -4 3 -12 -8 -17 -25z"/>
<path d="M1007 1364 c-1 -1 -29 -6 -61 -9 -33 -4 -67 -9 -75 -10 -9 -2 -40 -6
-68 -10 -51 -7 -53 -8 -46 -34 13 -52 60 -157 95 -211 69 -107 165 -197 278
-262 56 -32 188 -80 193 -70 3 4 10 48 17 97 6 50 13 100 15 111 2 12 6 46 10
75 l6 54 -60 33 c-75 40 -150 115 -187 187 -29 54 -30 55 -71 53 -24 -1 -44
-2 -46 -4z"/>
<path d="M587 1294 c-1 -1 -27 -5 -57 -8 -30 -4 -71 -8 -90 -11 -19 -2 -57 -7
-85 -10 -27 -4 -61 -8 -75 -10 -72 -10 -109 -15 -150 -20 -85 -11 -125 -17
-128 -19 -6 -7 51 -201 83 -281 53 -129 86 -187 103 -180 8 3 125 72 261 153
135 81 254 150 264 154 10 5 17 11 15 15 -2 5 -15 31 -29 58 -15 28 -35 76
-45 107 -15 50 -21 57 -41 56 -13 -2 -25 -3 -26 -4z"/>
<path d="M2346 1238 c-11 -29 -32 -79 -48 -110 l-28 -58 22 -14 c75 -48 363
-216 370 -216 4 0 8 -4 8 -10 0 -5 4 -10 9 -10 5 0 39 -18 76 -41 37 -22 69
-39 70 -37 12 12 87 175 109 237 35 98 68 222 61 229 -6 7 -16 8 -100 18 -33
3 -67 7 -75 9 -8 2 -43 6 -77 10 -35 4 -73 9 -85 10 -13 2 -45 6 -73 9 -27 4
-59 9 -70 11 -11 2 -49 7 -85 10 l-65 7 -19 -54z"/>
<path d="M622 858 c-89 -62 -204 -142 -257 -178 -52 -36 -95 -69 -95 -74 0
-16 98 -131 178 -208 92 -88 160 -137 170 -121 4 5 61 88 127 183 66 95 144
207 173 250 l52 77 -91 92 c-50 50 -92 91 -93 91 -1 0 -75 -51 -164 -112z"/>
<path d="M2160 917 c-25 -30 -64 -69 -87 -88 -24 -19 -43 -36 -43 -39 0 -3 36
-57 79 -120 44 -63 124 -179 178 -257 54 -78 102 -142 107 -143 38 -1 337 299
336 338 0 4 -24 23 -53 43 -28 19 -141 97 -251 173 -109 76 -204 139 -210 142
-6 2 -31 -20 -56 -49z"/>
<path d="M1880 704 c-25 -13 -75 -34 -113 -46 -66 -22 -67 -23 -62 -52 2 -17
7 -56 11 -86 6 -57 8 -72 18 -155 10 -84 24 -192 31 -235 2 -14 6 -49 10 -77
4 -29 10 -53 15 -53 23 0 234 67 303 96 67 28 151 68 165 80 4 3 -307 525
-322 541 -8 9 -22 6 -56 -13z"/>
<path d="M905 453 c-88 -146 -161 -269 -163 -273 -3 -9 110 -64 218 -106 81
-31 249 -78 255 -72 4 4 12 53 25 163 11 87 14 113 26 200 3 22 7 51 9 65 2
14 6 52 10 85 3 33 8 74 11 91 5 30 3 31 -57 48 -33 9 -83 28 -110 41 -26 14
-52 25 -56 25 -4 -1 -80 -120 -168 -267z"/>
</g>
</svg>
